<svg width="20" height="20" viewBox="0 0 20 20" fill="none" xmlns="http://www.w3.org/2000/svg">
<rect width="20" height="20" rx="10" fill="#355B73"/>
<path d="M6.88889 3C4.74456 3 3 4.74456 3 6.88889V13.1111C3 15.2554 4.74456 17 6.88889 17H13.1111C15.2554 17 17 15.2554 17 13.1111V6.88889C17 4.74456 15.2554 3 13.1111 3H6.88889ZM6.88889 4.55556H13.1111C14.3976 4.55556 15.4444 5.60244 15.4444 6.88889V13.1111C15.4444 14.3976 14.3976 15.4444 13.1111 15.4444H6.88889C5.60244 15.4444 4.55556 14.3976 4.55556 13.1111V6.88889C4.55556 5.60244 5.60244 4.55556 6.88889 4.55556ZM13.8889 5.33333C13.6826 5.33333 13.4848 5.41528 13.3389 5.56114C13.1931 5.707 13.1111 5.90483 13.1111 6.11111C13.1111 6.31739 13.1931 6.51522 13.3389 6.66108C13.4848 6.80694 13.6826 6.88889 13.8889 6.88889C14.0952 6.88889 14.293 6.80694 14.4389 6.66108C14.5847 6.51522 14.6667 6.31739 14.6667 6.11111C14.6667 5.90483 14.5847 5.707 14.4389 5.56114C14.293 5.41528 14.0952 5.33333 13.8889 5.33333ZM10 6.11111C7.85567 6.11111 6.11111 7.85567 6.11111 10C6.11111 12.1443 7.85567 13.8889 10 13.8889C12.1443 13.8889 13.8889 12.1443 13.8889 10C13.8889 7.85567 12.1443 6.11111 10 6.11111ZM10 7.66667C11.2864 7.66667 12.3333 8.71356 12.3333 10C12.3333 11.2864 11.2864 12.3333 10 12.3333C8.71356 12.3333 7.66667 11.2864 7.66667 10C7.66667 8.71356 8.71356 7.66667 10 7.66667Z" fill="black"/>
</svg>
