<svg width="20" height="20" viewBox="0 0 20 20" fill="none" xmlns="http://www.w3.org/2000/svg">
<rect width="20" height="20" rx="10" fill="#355B73"/>
<path d="M4.66667 3C3.75016 3 3 3.75016 3 4.66667V15.3333C3 16.2498 3.75016 17 4.66667 17H15.3333C16.2498 17 17 16.2498 17 15.3333V4.66667C17 3.75016 16.2498 3 15.3333 3H4.66667ZM4.66667 3.66667H15.3333C15.8895 3.66667 16.3333 4.11051 16.3333 4.66667V15.3333C16.3333 15.8895 15.8895 16.3333 15.3333 16.3333H4.66667C4.11051 16.3333 3.66667 15.8895 3.66667 15.3333V4.66667C3.66667 4.11051 4.11051 3.66667 4.66667 3.66667ZM6.33333 5.33724C5.96826 5.33724 5.63974 5.44636 5.39648 5.65104C5.15323 5.85572 5.00391 6.1615 5.00391 6.48893C5.00391 7.11133 5.54376 7.59654 6.23047 7.64453L6.23177 7.64518C6.26449 7.65634 6.29877 7.66227 6.33333 7.66276C7.091 7.66276 7.66276 7.13203 7.66276 6.48893C7.6627 6.48307 7.66248 6.47721 7.66211 6.47135C7.62819 5.83794 7.06348 5.33724 6.33333 5.33724ZM6.33333 5.99609C6.79741 5.99609 6.98066 6.20335 7.00065 6.4974C6.9966 6.78281 6.82003 7.00391 6.33333 7.00391C5.87153 7.00391 5.66276 6.76741 5.66276 6.48893C5.66276 6.34969 5.71357 6.24477 5.82031 6.15495C5.92706 6.06513 6.09841 5.99609 6.33333 5.99609ZM5.33333 8C5.24493 8.00001 5.16015 8.03513 5.09764 8.09764C5.03513 8.16015 5.00001 8.24493 5 8.33333V14.6667C5.00001 14.7551 5.03513 14.8398 5.09764 14.9024C5.16015 14.9649 5.24493 15 5.33333 15H7.33333C7.42174 15 7.50652 14.9649 7.56903 14.9024C7.63154 14.8398 7.66666 14.7551 7.66667 14.6667V12.7116V8.33333C7.66666 8.24493 7.63154 8.16015 7.56903 8.09764C7.50652 8.03513 7.42174 8.00001 7.33333 8H5.33333ZM8.33333 8C8.24493 8.00001 8.16015 8.03513 8.09764 8.09764C8.03513 8.16015 8.00001 8.24493 8 8.33333V14.6667C8.00001 14.7551 8.03513 14.8398 8.09764 14.9024C8.16015 14.9649 8.24493 15 8.33333 15H10.3333C10.4217 15 10.5065 14.9649 10.569 14.9024C10.6315 14.8398 10.6667 14.7551 10.6667 14.6667V11.3333C10.6667 11.0568 10.7421 10.7817 10.875 10.6016C11.0079 10.4214 11.1755 10.3134 11.4941 10.319C11.8227 10.3247 11.9967 10.4372 12.1283 10.6139C12.2598 10.7906 12.3333 11.0556 12.3333 11.3333V14.6667C12.3333 14.7551 12.3685 14.8398 12.431 14.9024C12.4935 14.9649 12.5783 15 12.6667 15H14.6667C14.7551 15 14.8398 14.9649 14.9024 14.9024C14.9649 14.8398 15 14.7551 15 14.6667V11.0872C15 10.1001 14.7076 9.31811 14.2064 8.78906C13.7052 8.26001 13.0081 8 12.2708 8C11.5702 8 11.037 8.23496 10.6667 8.47461V8.33333C10.6667 8.24493 10.6315 8.16015 10.569 8.09764C10.5065 8.03513 10.4217 8.00001 10.3333 8H8.33333ZM5.66667 8.66667H7V12.7116V14.3333H5.66667V8.66667ZM8.66667 8.66667H10V9.18685C10 9.25674 10.022 9.32487 10.0629 9.38158C10.1037 9.4383 10.1614 9.48074 10.2276 9.50291C10.2939 9.52507 10.3655 9.52585 10.4323 9.50511C10.499 9.48438 10.5575 9.44319 10.5996 9.38737C10.5996 9.38737 11.1231 8.66667 12.2708 8.66667C12.8553 8.66667 13.3565 8.86086 13.7227 9.2474C14.0889 9.63393 14.3333 10.2294 14.3333 11.0872V14.3333H13V11.3333C13 10.9444 12.9068 10.5424 12.6634 10.2155C12.42 9.88862 12.0106 9.66103 11.5059 9.65234C10.9985 9.64333 10.5825 9.87566 10.3385 10.2064C10.0946 10.5371 10 10.9432 10 11.3333V14.3333H8.66667V8.66667Z" fill="#101E26"/>
</svg>
