<svg width="221" height="157" viewBox="0 0 221 157" fill="none" xmlns="http://www.w3.org/2000/svg">
<path d="M97.9228 87.75L57.5 148.023L17.0772 87.75L97.9228 87.75Z" stroke="#101E26" stroke-opacity="0.1" stroke-width="10"/>
<path d="M57.4999 119.199L45.6034 119.199L46.9252 121.155C46.9252 121.155 47.0133 121.155 47.3658 121.155H68.0746L69.3965 119.199H60.5842M57.4999 119.199L57.4999 92.9914M57.4999 119.199H60.5842M57.4999 92.9914H60.5842L60.5842 118.808V119.199M57.4999 92.9914H54.4156L54.4156 118.808" stroke="#101E26" stroke-opacity="0.1" stroke-width="3"/>
<path d="M221 75C221 116.421 196.759 151 152.288 151C107.818 151 46 116.421 46 75C108.27 32.5 82.0507 0 126.521 0C170.992 0 221 33.5786 221 75Z" fill="#355B73"/>
<g clip-path="url(#clip0_8_10797)">
<path d="M134.918 13.2437C134.848 13.2531 133.576 13.3187 132.092 13.375C126.016 13.6187 124.364 13.7125 124.161 13.8344C124.046 13.9 123.878 14.0875 123.79 14.2469C123.622 14.5375 123.613 14.8 123.613 23.8562C123.613 34.1875 123.587 33.6437 124.187 33.9437C124.346 34.0281 124.523 34.0937 124.576 34.0937C124.629 34.0937 124.841 34.15 125.044 34.225C125.256 34.3 125.963 34.5344 126.616 34.75C127.27 34.9656 127.906 35.1719 128.029 35.2187C128.153 35.2656 128.851 35.5 129.575 35.7344C130.308 35.9781 131.121 36.25 131.386 36.3344C131.651 36.4281 132.092 36.5781 132.357 36.6625C132.622 36.7562 133.779 37.1406 134.927 37.5156L137.02 38.2094L138.902 37.9281C139.944 37.7781 141.348 37.5719 142.037 37.4687C142.717 37.3656 143.388 37.2812 143.521 37.2812C143.653 37.2812 143.883 37.2062 144.042 37.1219C144.228 37.0187 144.572 36.9625 145.075 36.9437C145.491 36.9344 146.4 36.8406 147.107 36.7281C147.813 36.625 148.705 36.4844 149.094 36.4375C150.295 36.2594 151.019 36.1469 151.435 36.0437C151.655 35.9969 152.115 35.9406 152.45 35.9219C152.795 35.9125 153.369 35.8562 153.731 35.8C154.623 35.6594 156.169 35.4344 157.644 35.2281C158.809 35.0687 158.889 35.0406 159.145 34.7594L159.428 34.4687L159.454 32.9406C159.543 26.8281 159.604 14.1156 159.543 13.8719C159.498 13.7031 159.366 13.4875 159.233 13.375C159.004 13.1875 158.968 13.1875 147.027 13.1969C140.439 13.2062 134.989 13.225 134.918 13.2437Z" fill="#101E26"/>
<path d="M108.351 42.2687L108.378 58.2344H108.731H109.084L109.128 42.7187L109.173 27.2031L115.117 27.175L121.052 27.1562V26.7344V26.3125H114.693H108.333L108.351 42.2687Z" fill="#101E26"/>
<path d="M161.3 26.3781C161.265 26.4062 161.238 26.6031 161.238 26.8V27.1562L167.359 27.175L173.471 27.2031L173.497 42.6906L173.515 58.1875L173.727 58.2437C173.851 58.2719 174.018 58.2812 174.107 58.2625C174.257 58.2344 174.266 57.6531 174.292 42.2687L174.31 26.3125H167.836C164.268 26.3125 161.327 26.3406 161.3 26.3781Z" fill="#101E26"/>
<path d="M125.132 37.7312C125.053 37.7969 125.026 43.7406 125.026 67.0562V96.2969L125.424 96.325L125.821 96.3531V67.0656C125.821 40.4406 125.812 37.7687 125.68 37.7125C125.494 37.6375 125.274 37.6469 125.132 37.7312Z" fill="#101E26"/>
<path d="M157.732 37.7313C157.644 37.7875 157.617 43.7969 157.617 67.0562V96.2969L158.015 96.325L158.412 96.3531L158.394 67.0281L158.368 37.7031L158.103 37.675C157.962 37.6656 157.785 37.6844 157.732 37.7313Z" fill="#101E26"/>
<path d="M140.006 39.2031C139.979 39.2875 139.953 43.375 139.953 48.2969C139.953 58.1219 139.917 57.4844 140.5 57.4188L140.792 57.3906V48.25V39.1094L140.43 39.0813C140.156 39.0625 140.05 39.0906 140.006 39.2031Z" fill="#101E26"/>
<path d="M98.1412 59.9969C98.0087 60.1 97.9999 60.8594 98.0175 69.5781L98.044 79.0469L98.7948 79.0281C99.2099 79.0187 100.022 78.9719 100.605 78.9156C103.723 78.6344 106.832 78.4 106.867 78.4375C106.92 78.4937 106.452 82.525 106.39 82.6C106.364 82.6187 105.825 82.7125 105.198 82.7969C103.591 83.0031 101.709 83.3031 101.612 83.3687C101.497 83.4437 101.515 84.0719 101.648 84.3437C101.789 84.6437 102.292 84.9437 103.167 85.2437C104.474 85.6844 104.288 85.6844 107.406 85.1969C109.667 84.8406 114.808 83.8937 115.09 83.7812C115.346 83.6781 115.39 83.35 115.152 83.275C115.073 83.2469 114.445 83.05 113.765 82.8344C112.573 82.4594 112.485 82.4406 111.125 82.4125C110.356 82.3937 109.685 82.3469 109.65 82.3094C109.482 82.1312 109.376 80.2656 109.473 79.2719C109.526 78.7375 109.605 78.2687 109.641 78.2312C109.703 78.1656 114.366 77.7437 117.572 77.5094C118.164 77.4719 118.685 77.4062 118.747 77.3687C118.888 77.275 118.888 61.7875 118.747 61.6937C118.658 61.6375 116.088 61.3937 113.898 61.2437C113.439 61.2062 111.328 61.0281 109.217 60.85C107.106 60.6719 104.836 60.475 104.182 60.4281C103.529 60.3719 102.557 60.2969 102.019 60.25C101.489 60.2031 100.455 60.1187 99.731 60.0625C99.0068 60.0062 98.3885 59.9406 98.3532 59.9219C98.3178 59.9031 98.2207 59.9312 98.1412 59.9969Z" fill="#101E26"/>
<path d="M130.387 59.9781C130.246 60.0625 130.237 60.6625 130.237 69.5406C130.237 77.875 130.255 79.0094 130.37 79.0562C130.44 79.0937 132.304 78.9625 134.503 78.775C136.694 78.5875 138.628 78.4375 138.787 78.4375C139.052 78.4375 139.069 78.4562 139.069 78.7375C139.061 79.0937 138.654 82.5719 138.61 82.6187C138.593 82.6375 138.204 82.6937 137.745 82.75C136.04 82.9656 133.814 83.3219 133.735 83.4062C133.7 83.4437 133.691 83.6687 133.726 83.8844C133.832 84.55 134.176 84.8312 135.413 85.2437C136.535 85.6187 136.967 85.6562 137.965 85.4781C138.257 85.4219 139.29 85.2531 140.262 85.0937C141.958 84.8125 143.609 84.5219 145.296 84.2031C145.738 84.1187 146.321 84.0156 146.595 83.9594C147.328 83.8281 147.548 83.725 147.548 83.5C147.548 83.3969 147.54 83.3125 147.522 83.3125C147.504 83.3125 146.877 83.1156 146.126 82.8812C144.784 82.4594 144.749 82.45 143.309 82.4219L141.852 82.3937L141.754 81.7937C141.551 80.6031 141.657 78.2969 141.931 78.1937C141.984 78.175 143.282 78.0531 144.81 77.9219C146.338 77.7906 148.034 77.65 148.573 77.5937C149.103 77.5469 149.783 77.5 150.074 77.5C150.357 77.5 150.684 77.4437 150.799 77.3781L151.002 77.2656V69.5312C150.993 65.275 150.993 61.7687 150.993 61.7312C150.993 61.6281 150.013 61.5344 146.003 61.2344C144.987 61.1594 143.927 61.075 143.662 61.0469C143.397 61.0187 142.673 60.9625 142.055 60.9062C140.774 60.8031 139.22 60.6719 137.639 60.5312C134.865 60.2969 133.788 60.2031 131.968 60.0625C131.244 60.0062 130.626 59.95 130.599 59.9312C130.564 59.9031 130.476 59.9312 130.387 59.9781Z" fill="#101E26"/>
<path d="M163.146 59.9875C163.023 60.0625 163.005 61.0281 163.005 69.5406C163.005 78.1 163.023 79.0094 163.146 79.0656C163.226 79.0937 164.303 79.0281 165.549 78.925C169.594 78.5687 171.828 78.4 171.872 78.4375C171.89 78.4656 171.881 78.6906 171.837 78.9531C171.802 79.2062 171.722 79.8437 171.66 80.3594C171.501 81.85 171.378 82.6562 171.316 82.6562C171.281 82.6562 170.601 82.7406 169.797 82.8437C167.748 83.1062 166.591 83.3219 166.52 83.4437C166.485 83.5 166.476 83.7156 166.502 83.9219C166.582 84.5125 166.979 84.8312 168.189 85.2437C169.276 85.6187 169.797 85.6656 170.698 85.4875C170.963 85.4312 171.475 85.3469 171.837 85.2906C172.199 85.225 173.93 84.925 175.679 84.6156C177.428 84.3062 179.088 84.0062 179.362 83.9594C180.025 83.8469 180.316 83.725 180.316 83.5562C180.316 83.3406 180.157 83.2656 178.77 82.8437C177.499 82.4594 177.393 82.4406 176.077 82.4125C174.716 82.3844 174.708 82.3844 174.593 82.15C174.345 81.6437 174.381 78.5031 174.637 78.25C174.699 78.175 175.529 78.1 179.3 77.7719C179.936 77.725 180.864 77.6406 181.367 77.5937C181.879 77.5375 182.515 77.5 182.798 77.5C183.08 77.5 183.407 77.4625 183.531 77.4062L183.761 77.3125V69.4937V61.675L183.345 61.6187C182.939 61.5625 180.369 61.3469 178.814 61.2344C178.081 61.1875 174.743 60.9062 172.57 60.7187C171.13 60.5969 169.603 60.4656 168.039 60.3437C167.333 60.2875 166.414 60.2031 165.999 60.1562C165.575 60.1 164.983 60.0625 164.674 60.0531C164.365 60.0531 163.923 60.0156 163.694 59.9781C163.473 59.9406 163.217 59.9406 163.146 59.9875Z" fill="#101E26"/>
<path d="M149.624 84.6906C149.288 84.7562 148.449 84.9156 147.769 85.0469C147.089 85.1687 146.073 85.3562 145.517 85.4687C144.272 85.7031 142.62 86.0125 142.028 86.1156C141.79 86.1625 141.251 86.2656 140.836 86.3406C140.421 86.425 139.37 86.6219 138.495 86.7812C137.621 86.95 136.252 87.2031 135.448 87.3531C132.295 87.9437 131.942 88.0094 131.492 88.0937C130.926 88.1969 130.909 88.2062 130.767 88.5625C130.679 88.7969 130.679 88.8719 130.785 89.0125C130.856 89.0969 131.191 89.5281 131.527 89.9687C134.592 93.9062 134.751 94.1031 134.945 94.0375C135.051 94.0094 135.793 93.7562 136.597 93.475C137.4 93.2031 138.336 92.8844 138.672 92.7812C139.017 92.6687 139.626 92.4531 140.041 92.3125C140.801 92.0406 141.225 91.9 144.06 90.9531C144.934 90.6625 145.87 90.3437 146.135 90.25C146.4 90.1562 147.336 89.8375 148.211 89.5469C149.085 89.2562 149.898 88.9844 150.021 88.9375C150.145 88.8906 151.02 88.5906 151.965 88.2719C154.464 87.4375 155.003 87.2406 155.082 87.1562C155.232 87.0062 155.038 86.6687 154.72 86.5281C154.535 86.4531 154.234 86.3125 154.031 86.2094C153.837 86.1156 153.457 85.9562 153.201 85.8437C152.945 85.7312 152.565 85.5719 152.371 85.4687C151.867 85.2344 150.922 84.8219 150.551 84.6812C150.304 84.5875 150.119 84.5875 149.624 84.6906Z" fill="#101E26"/>
<path d="M116.945 84.775C116.556 84.85 115.938 84.9625 115.576 85.0375C115.214 85.1125 114.419 85.2625 113.809 85.375C113.2 85.4875 112.07 85.6937 111.292 85.8437C110.515 85.9937 108.943 86.2844 107.804 86.5C106.664 86.7062 104.951 87.0344 104.006 87.2125C103.061 87.3812 101.807 87.6156 101.224 87.7187C100.641 87.8312 100.005 87.9531 99.8104 88C99.6161 88.0469 99.2982 88.1125 99.095 88.1406C98.8212 88.1875 98.7064 88.2625 98.5828 88.4781C98.4061 88.7969 98.4238 88.8625 99.0332 89.6125C99.2187 89.8469 100.084 90.9437 100.95 92.0594C101.815 93.1844 102.54 94.0938 102.557 94.0938C102.575 94.0938 103.193 93.8875 103.935 93.6344C104.677 93.3812 106.064 92.9125 107.009 92.5937C107.954 92.275 108.952 91.9375 109.217 91.8437C109.482 91.75 110.303 91.4781 111.027 91.2344C111.76 90.9906 112.688 90.6719 113.103 90.5312C113.518 90.3812 114.631 90.0062 115.576 89.6875C116.521 89.3781 117.457 89.0594 117.651 88.9844C117.846 88.9187 118.782 88.6 119.727 88.2812C122.836 87.2312 122.862 87.2219 122.889 86.9969C122.924 86.7344 122.721 86.5937 121.705 86.1625C121.273 85.975 120.805 85.7687 120.654 85.7031C119.374 85.0844 118.226 84.625 117.961 84.6344C117.793 84.6344 117.334 84.7 116.945 84.775Z" fill="#101E26"/>
<path d="M181.42 84.8688C180.793 84.9906 179.574 85.225 178.726 85.3844C177.878 85.5344 176.969 85.7031 176.721 85.7594C174.31 86.2188 173.33 86.3969 171.793 86.6875C170.919 86.8469 169.788 87.0531 169.276 87.1563C168.763 87.25 167.854 87.4188 167.244 87.5313C166.635 87.6344 165.981 87.7656 165.787 87.8125C165.593 87.85 165.16 87.9344 164.815 88C164.48 88.0563 164.091 88.1313 163.95 88.1594C163.614 88.225 163.376 88.7031 163.535 88.975C163.597 89.0875 164.524 90.2781 165.584 91.6375C167.28 93.7938 167.545 94.0938 167.712 94.0375C167.818 94 168.56 93.7563 169.364 93.4844C170.168 93.2125 171.599 92.725 172.544 92.4063C173.489 92.0875 174.549 91.7219 174.884 91.6094C175.229 91.4969 176.041 91.2156 176.695 91C177.348 90.775 178.223 90.4844 178.638 90.3344C179.053 90.1938 180.166 89.8188 181.111 89.5C182.056 89.1906 182.992 88.8719 183.186 88.7969C183.381 88.7313 184.317 88.4125 185.262 88.0938C186.207 87.775 187.17 87.4469 187.399 87.3719C187.629 87.2969 187.832 87.175 187.859 87.0906C187.929 86.8938 187.77 86.6219 187.541 86.5375C187.426 86.5 187.134 86.3781 186.896 86.2563C186.649 86.1438 186.234 85.9563 185.977 85.8438C185.712 85.7406 185.333 85.5719 185.138 85.4688C183.99 84.9156 183.204 84.625 182.904 84.6344C182.718 84.6344 182.056 84.7469 181.42 84.8688Z" fill="#101E26"/>
<path d="M115.284 99.0063C115.249 99.1 115.223 103.366 115.223 108.484C115.223 116.847 115.24 117.813 115.364 117.944C115.435 118.028 115.532 118.075 115.567 118.047C115.611 118.028 116.23 117.963 116.954 117.906C117.678 117.85 118.491 117.784 118.756 117.766C121.361 117.522 123.905 117.334 123.993 117.372C124.126 117.428 124.134 117.363 123.71 120.888C123.64 121.544 123.551 121.656 123.074 121.656C122.81 121.656 120.849 121.928 119.241 122.191C118.756 122.275 118.685 122.406 118.8 123.025C118.87 123.447 119.259 123.747 120.178 124.084C121.573 124.6 121.661 124.609 123.039 124.384C126.21 123.869 131.58 122.913 132.339 122.734C132.472 122.697 132.534 122.613 132.534 122.472C132.534 122.275 132.41 122.219 131.103 121.797C129.69 121.347 129.637 121.338 128.241 121.3L126.81 121.263L126.766 120.822C126.625 119.622 126.607 118.994 126.696 118.141C126.757 117.634 126.846 117.184 126.899 117.147C126.996 117.081 127.561 117.016 128.824 116.922C129.186 116.894 130.246 116.809 131.165 116.734C132.092 116.659 133.417 116.547 134.124 116.491C134.83 116.434 135.546 116.359 135.713 116.322L136.022 116.256L136.049 108.484C136.058 104.209 136.04 100.684 135.996 100.638C135.943 100.581 129.584 100.009 126.307 99.7656C125.645 99.7188 118.544 99.1188 117.387 99.0156C115.426 98.8375 115.337 98.8375 115.284 99.0063Z" fill="#101E26"/>
<path d="M147.875 99.0062C147.84 99.1 147.813 103.366 147.813 108.484C147.813 116.847 147.831 117.812 147.955 117.944C148.025 118.028 148.123 118.075 148.167 118.047C148.211 118.019 148.812 117.953 149.509 117.906C150.198 117.859 150.993 117.794 151.258 117.766C153.837 117.522 156.584 117.334 156.646 117.4C156.681 117.447 156.69 117.719 156.646 118C156.61 118.281 156.531 118.919 156.469 119.406C156.416 119.894 156.328 120.578 156.275 120.934C156.178 121.656 156.301 121.591 154.835 121.75C154.305 121.816 153.484 121.919 153.024 121.994C152.565 122.069 152 122.153 151.77 122.191C151.276 122.256 151.205 122.397 151.346 122.959C151.496 123.578 151.973 123.869 153.643 124.384C154.252 124.572 154.367 124.581 155.012 124.478C157.237 124.131 164.277 122.894 164.93 122.734C165.063 122.697 165.125 122.612 165.125 122.462C165.125 122.294 165.054 122.228 164.754 122.134C163.879 121.872 163.111 121.619 162.74 121.487C162.413 121.375 160.885 121.272 159.507 121.281C159.233 121.281 159.128 118.309 159.366 117.391C159.454 117.053 158.995 117.119 164.718 116.641C167.5 116.406 168.525 116.294 168.578 116.2C168.622 116.134 168.657 112.637 168.657 108.428C168.657 101.912 168.64 100.759 168.534 100.666C168.463 100.6 168.172 100.534 167.889 100.506C167.606 100.487 166.644 100.403 165.743 100.328C163.393 100.131 160.196 99.8687 158.942 99.7656C158.58 99.7375 156.275 99.5406 153.819 99.3344C147.363 98.7906 147.937 98.8187 147.875 99.0062Z" fill="#101E26"/>
<path d="M134.565 123.625C134.344 123.663 133.691 123.794 133.108 123.906C132.525 124.009 131.854 124.141 131.606 124.188C131.368 124.234 130.705 124.356 130.149 124.459C129.593 124.563 128.674 124.731 128.118 124.844C127.561 124.947 126.528 125.144 125.821 125.275C125.115 125.406 123.648 125.678 122.553 125.884C121.458 126.091 120.133 126.344 119.594 126.438C118.747 126.597 117.192 126.897 116.3 127.066C116 127.122 115.611 127.572 115.691 127.778C115.717 127.844 116.539 128.922 117.528 130.188C118.517 131.453 119.418 132.606 119.515 132.747C119.718 133.009 119.886 133.056 120.151 132.916C120.23 132.869 121.016 132.588 121.891 132.297C122.765 132.006 124.081 131.566 124.805 131.313C125.539 131.069 126.846 130.628 127.72 130.328C128.594 130.038 129.531 129.719 129.796 129.625C130.061 129.531 130.935 129.231 131.739 128.969C132.542 128.706 133.417 128.406 133.682 128.313C133.947 128.219 134.883 127.9 135.757 127.609C136.632 127.319 137.683 126.963 138.098 126.813C138.513 126.672 139.14 126.456 139.493 126.344C140.032 126.166 140.129 126.1 140.129 125.922C140.129 125.809 140.076 125.669 140.023 125.613C139.917 125.528 136.985 124.188 136.897 124.188C136.879 124.188 136.596 124.056 136.27 123.897C135.607 123.569 135.174 123.503 134.565 123.625Z" fill="#101E26"/>
<path d="M166.582 123.728C165.416 123.953 164.939 124.047 163.667 124.281C163.084 124.384 162.413 124.516 162.166 124.563C161.495 124.694 160.24 124.928 159.163 125.125C157.988 125.341 153.599 126.166 151.903 126.494C151.47 126.569 150.931 126.672 150.684 126.719C150.445 126.766 149.907 126.869 149.492 126.944C149.076 127.028 148.697 127.094 148.653 127.094C148.6 127.094 148.485 127.244 148.396 127.422C148.255 127.703 148.246 127.769 148.352 127.909C148.494 128.097 151.373 131.8 151.867 132.419C152.044 132.644 152.203 132.869 152.212 132.916C152.256 133.028 152.548 133.028 152.742 132.906C152.821 132.859 153.228 132.709 153.643 132.578C154.058 132.438 154.835 132.184 155.365 132.006C155.904 131.819 156.699 131.556 157.131 131.406C157.573 131.266 158.942 130.797 160.179 130.375C161.415 129.953 163.19 129.363 164.109 129.044C165.036 128.734 166.123 128.359 166.538 128.219C166.953 128.069 167.73 127.806 168.26 127.628C168.799 127.45 170 127.038 170.936 126.719C173.162 125.969 173.206 125.856 171.66 125.163C171.148 124.938 170.645 124.703 170.539 124.656C168.746 123.822 168.013 123.531 167.757 123.541C167.598 123.55 167.068 123.634 166.582 123.728Z" fill="#101E26"/>
</g>
<defs>
<clipPath id="clip0_8_10797">
<rect width="90" height="120" fill="white" transform="translate(98 13)"/>
</clipPath>
</defs>
</svg>
