<svg width="20" height="20" viewBox="0 0 20 20" fill="none" xmlns="http://www.w3.org/2000/svg">
<rect width="20" height="20" rx="10" fill="#355B73"/>
<path d="M9.10197 2.05548C5.4145 2.4563 2.44849 5.42231 2.04768 9.02961C1.64687 12.7972 3.81125 16.1641 7.09791 17.4467C7.3384 17.5268 7.57889 17.3665 7.57889 17.0459V15.7633C7.57889 15.7633 7.25824 15.8434 6.85743 15.8434C5.73515 15.8434 5.25418 14.8815 5.17402 14.3203C5.09385 13.9997 4.93353 13.7592 4.69304 13.5187C4.45255 13.4385 4.37239 13.4385 4.37239 13.3584C4.37239 13.1981 4.61288 13.1981 4.69304 13.1981C5.17402 13.1981 5.57483 13.7592 5.73515 13.9997C6.13596 14.641 6.61694 14.8013 6.85743 14.8013C7.17808 14.8013 7.41856 14.7211 7.57889 14.641C7.65905 14.0798 7.89954 13.5187 8.38051 13.1981C6.53678 12.7972 5.17402 11.7551 5.17402 9.99156C5.17402 9.10978 5.57483 8.22799 6.13596 7.58669C6.0558 7.42637 5.97564 7.02555 5.97564 6.46442C5.97564 6.14377 5.97564 5.66279 6.21613 5.18182C6.21613 5.18182 7.3384 5.18182 8.46067 6.22393C8.86149 6.06361 9.42262 5.98344 9.98376 5.98344C10.5449 5.98344 11.106 6.06361 11.587 6.22393C12.6291 5.18182 13.8316 5.18182 13.8316 5.18182C13.9919 5.66279 13.9919 6.14377 13.9919 6.46442C13.9919 7.10572 13.9117 7.42637 13.8316 7.58669C14.3927 8.22799 14.7935 9.02961 14.7935 9.99156C14.7935 11.7551 13.4307 12.7972 11.587 13.1981C12.068 13.5989 12.3886 14.3203 12.3886 15.0418V17.126C12.3886 17.3665 12.6291 17.607 12.9498 17.5268C15.9158 16.3244 18 13.4385 18 10.0717C18 5.26198 13.9117 1.49435 9.10197 2.05548Z" fill="#101E26"/>
</svg>
