<svg width="20" height="95" viewBox="0 0 20 95" fill="none" xmlns="http://www.w3.org/2000/svg">
<rect y="50" width="20" height="20" rx="10" fill="#355B73"/>
<path d="M16.7443 53.0278C16.1737 53.3647 15.2028 53.9964 14.7149 54.1172C14.696 54.1233 14.6806 54.1312 14.6624 54.1373C14.0933 53.4356 13.3135 53.0007 12.4504 53.0007C10.7109 53.0007 9.30033 54.7637 9.30033 56.938C9.30033 57.0526 9.29263 57.2635 9.30033 57.3755C7.04769 57.3755 5.40267 55.9064 4.17135 54.0183C4.00684 53.7646 3.83184 53.8967 3.79544 54.0769C3.71354 54.4846 3.68554 55.1662 3.68554 55.6527C3.68554 56.8785 4.45205 58.0825 5.64557 58.8288C5.42577 58.8997 5.18356 58.9504 4.93156 58.9504C4.63475 58.9504 4.29315 58.8533 3.99424 58.6573C3.88364 58.5847 3.64494 58.6048 3.71564 58.9583C3.99914 60.3748 5.29277 61.3697 6.44848 61.6593C6.18598 61.8526 5.62597 61.8133 5.36837 61.8133C5.27316 61.8133 4.94206 61.7853 4.72786 61.752C4.53255 61.7223 4.23225 61.7853 4.48355 62.2612C5.02326 63.2823 6.24408 63.9237 7.2948 63.9482C6.32738 64.8966 4.74536 65.2431 3.22983 65.2431C2.92323 65.2343 2.93863 65.6709 3.18573 65.8328C4.30365 66.566 6.13488 67 7.4432 67C12.6443 67 15.6004 62.0451 15.6004 57.3746C15.6004 57.2994 15.599 57.1419 15.5969 56.9835C15.5969 56.9678 15.6004 56.9529 15.6004 56.9371C15.6004 56.9135 15.5948 56.8908 15.5948 56.8671C15.5927 56.7481 15.5906 56.637 15.5885 56.5793C16.0008 56.2074 16.6323 55.5617 16.9515 55.0674C17.06 54.8994 16.9725 54.6955 16.8248 54.7594C16.4447 54.9247 15.7873 55.245 15.3757 55.3062C16.1996 54.6246 16.6071 54.0314 16.9571 53.3726C17.0768 53.1477 16.927 52.9193 16.7443 53.0278Z" fill="#101E26"/>
<rect y="25" width="20" height="20" rx="10" fill="#355B73"/>
<path d="M4.66667 28C3.75016 28 3 28.7502 3 29.6667V40.3333C3 41.2498 3.75016 42 4.66667 42H15.3333C16.2498 42 17 41.2498 17 40.3333V29.6667C17 28.7502 16.2498 28 15.3333 28H4.66667ZM4.66667 28.6667H15.3333C15.8895 28.6667 16.3333 29.1105 16.3333 29.6667V40.3333C16.3333 40.8895 15.8895 41.3333 15.3333 41.3333H4.66667C4.11051 41.3333 3.66667 40.8895 3.66667 40.3333V29.6667C3.66667 29.1105 4.11051 28.6667 4.66667 28.6667ZM6.33333 30.3372C5.96826 30.3372 5.63974 30.4464 5.39648 30.651C5.15323 30.8557 5.00391 31.1615 5.00391 31.4889C5.00391 32.1113 5.54376 32.5965 6.23047 32.6445L6.23177 32.6452C6.26449 32.6563 6.29877 32.6623 6.33333 32.6628C7.091 32.6628 7.66276 32.132 7.66276 31.4889C7.6627 31.4831 7.66248 31.4772 7.66211 31.4714C7.62819 30.8379 7.06348 30.3372 6.33333 30.3372ZM6.33333 30.9961C6.79741 30.9961 6.98066 31.2033 7.00065 31.4974C6.9966 31.7828 6.82003 32.0039 6.33333 32.0039C5.87153 32.0039 5.66276 31.7674 5.66276 31.4889C5.66276 31.3497 5.71357 31.2448 5.82031 31.1549C5.92706 31.0651 6.09841 30.9961 6.33333 30.9961ZM5.33333 33C5.24493 33 5.16015 33.0351 5.09764 33.0976C5.03513 33.1602 5.00001 33.2449 5 33.3333V39.6667C5.00001 39.7551 5.03513 39.8398 5.09764 39.9024C5.16015 39.9649 5.24493 40 5.33333 40H7.33333C7.42174 40 7.50652 39.9649 7.56903 39.9024C7.63154 39.8398 7.66666 39.7551 7.66667 39.6667V37.7116V33.3333C7.66666 33.2449 7.63154 33.1602 7.56903 33.0976C7.50652 33.0351 7.42174 33 7.33333 33H5.33333ZM8.33333 33C8.24493 33 8.16015 33.0351 8.09764 33.0976C8.03513 33.1602 8.00001 33.2449 8 33.3333V39.6667C8.00001 39.7551 8.03513 39.8398 8.09764 39.9024C8.16015 39.9649 8.24493 40 8.33333 40H10.3333C10.4217 40 10.5065 39.9649 10.569 39.9024C10.6315 39.8398 10.6667 39.7551 10.6667 39.6667V36.3333C10.6667 36.0568 10.7421 35.7817 10.875 35.6016C11.0079 35.4214 11.1755 35.3134 11.4941 35.319C11.8227 35.3247 11.9967 35.4372 12.1283 35.6139C12.2598 35.7906 12.3333 36.0556 12.3333 36.3333V39.6667C12.3333 39.7551 12.3685 39.8398 12.431 39.9024C12.4935 39.9649 12.5783 40 12.6667 40H14.6667C14.7551 40 14.8398 39.9649 14.9024 39.9024C14.9649 39.8398 15 39.7551 15 39.6667V36.0872C15 35.1001 14.7076 34.3181 14.2064 33.7891C13.7052 33.26 13.0081 33 12.2708 33C11.5702 33 11.037 33.235 10.6667 33.4746V33.3333C10.6667 33.2449 10.6315 33.1602 10.569 33.0976C10.5065 33.0351 10.4217 33 10.3333 33H8.33333ZM5.66667 33.6667H7V37.7116V39.3333H5.66667V33.6667ZM8.66667 33.6667H10V34.1868C10 34.2567 10.022 34.3249 10.0629 34.3816C10.1037 34.4383 10.1614 34.4807 10.2276 34.5029C10.2939 34.5251 10.3655 34.5258 10.4323 34.5051C10.499 34.4844 10.5575 34.4432 10.5996 34.3874C10.5996 34.3874 11.1231 33.6667 12.2708 33.6667C12.8553 33.6667 13.3565 33.8609 13.7227 34.2474C14.0889 34.6339 14.3333 35.2294 14.3333 36.0872V39.3333H13V36.3333C13 35.9444 12.9068 35.5424 12.6634 35.2155C12.42 34.8886 12.0106 34.661 11.5059 34.6523C10.9985 34.6433 10.5825 34.8757 10.3385 35.2064C10.0946 35.5371 10 35.9432 10 36.3333V39.3333H8.66667V33.6667Z" fill="#101E26"/>
<rect width="20" height="20" rx="10" fill="#355B73"/>
<path d="M9.10197 2.05548C5.4145 2.4563 2.44849 5.42231 2.04768 9.02961C1.64687 12.7972 3.81125 16.1641 7.09791 17.4467C7.3384 17.5268 7.57889 17.3665 7.57889 17.0459V15.7633C7.57889 15.7633 7.25824 15.8434 6.85743 15.8434C5.73515 15.8434 5.25418 14.8815 5.17402 14.3203C5.09385 13.9997 4.93353 13.7592 4.69304 13.5187C4.45255 13.4385 4.37239 13.4385 4.37239 13.3584C4.37239 13.1981 4.61288 13.1981 4.69304 13.1981C5.17402 13.1981 5.57483 13.7592 5.73515 13.9997C6.13596 14.641 6.61694 14.8013 6.85743 14.8013C7.17808 14.8013 7.41856 14.7211 7.57889 14.641C7.65905 14.0798 7.89954 13.5187 8.38051 13.1981C6.53678 12.7972 5.17402 11.7551 5.17402 9.99156C5.17402 9.10978 5.57483 8.22799 6.13596 7.58669C6.0558 7.42637 5.97564 7.02555 5.97564 6.46442C5.97564 6.14377 5.97564 5.66279 6.21613 5.18182C6.21613 5.18182 7.3384 5.18182 8.46067 6.22393C8.86149 6.06361 9.42262 5.98344 9.98376 5.98344C10.5449 5.98344 11.106 6.06361 11.587 6.22393C12.6291 5.18182 13.8316 5.18182 13.8316 5.18182C13.9919 5.66279 13.9919 6.14377 13.9919 6.46442C13.9919 7.10572 13.9117 7.42637 13.8316 7.58669C14.3927 8.22799 14.7935 9.02961 14.7935 9.99156C14.7935 11.7551 13.4307 12.7972 11.587 13.1981C12.068 13.5989 12.3886 14.3203 12.3886 15.0418V17.126C12.3886 17.3665 12.6291 17.607 12.9498 17.5268C15.9158 16.3244 18 13.4385 18 10.0717C18 5.26198 13.9117 1.49435 9.10197 2.05548Z" fill="#101E26"/>
<rect y="75" width="20" height="20" rx="10" fill="#355B73"/>
<path d="M6.88889 78C4.74456 78 3 79.7446 3 81.8889V88.1111C3 90.2554 4.74456 92 6.88889 92H13.1111C15.2554 92 17 90.2554 17 88.1111V81.8889C17 79.7446 15.2554 78 13.1111 78H6.88889ZM6.88889 79.5556H13.1111C14.3976 79.5556 15.4444 80.6024 15.4444 81.8889V88.1111C15.4444 89.3976 14.3976 90.4444 13.1111 90.4444H6.88889C5.60244 90.4444 4.55556 89.3976 4.55556 88.1111V81.8889C4.55556 80.6024 5.60244 79.5556 6.88889 79.5556ZM13.8889 80.3333C13.6826 80.3333 13.4848 80.4153 13.3389 80.5611C13.1931 80.707 13.1111 80.9048 13.1111 81.1111C13.1111 81.3174 13.1931 81.5152 13.3389 81.6611C13.4848 81.8069 13.6826 81.8889 13.8889 81.8889C14.0952 81.8889 14.293 81.8069 14.4389 81.6611C14.5847 81.5152 14.6667 81.3174 14.6667 81.1111C14.6667 80.9048 14.5847 80.707 14.4389 80.5611C14.293 80.4153 14.0952 80.3333 13.8889 80.3333ZM10 81.1111C7.85567 81.1111 6.11111 82.8557 6.11111 85C6.11111 87.1443 7.85567 88.8889 10 88.8889C12.1443 88.8889 13.8889 87.1443 13.8889 85C13.8889 82.8557 12.1443 81.1111 10 81.1111ZM10 82.6667C11.2864 82.6667 12.3333 83.7136 12.3333 85C12.3333 86.2864 11.2864 87.3333 10 87.3333C8.71356 87.3333 7.66667 86.2864 7.66667 85C7.66667 83.7136 8.71356 82.6667 10 82.6667Z" fill="black"/>
</svg>
