<svg width="20" height="20" viewBox="0 0 20 20" fill="none" xmlns="http://www.w3.org/2000/svg">
<rect width="20" height="20" rx="10" fill="#355B73"/>
<path d="M16.7443 3.02784C16.1737 3.3647 15.2028 3.99641 14.7149 4.11716C14.696 4.12328 14.6806 4.13116 14.6624 4.13728C14.0933 3.43557 13.3135 3.00071 12.4504 3.00071C10.7109 3.00071 9.30033 4.76375 9.30033 6.93801C9.30033 7.05263 9.29263 7.2635 9.30033 7.37549C7.04769 7.37549 5.40267 5.90644 4.17135 4.01829C4.00684 3.76455 3.83184 3.89667 3.79544 4.07691C3.71354 4.48464 3.68554 5.16623 3.68554 5.6527C3.68554 6.87852 4.45205 8.08245 5.64557 8.82879C5.42577 8.89966 5.18356 8.95041 4.93156 8.95041C4.63475 8.95041 4.29315 8.85329 3.99424 8.6573C3.88364 8.58468 3.64494 8.6048 3.71564 8.95828C3.99914 10.3748 5.29277 11.3697 6.44848 11.6593C6.18598 11.8526 5.62597 11.8133 5.36837 11.8133C5.27316 11.8133 4.94206 11.7853 4.72786 11.752C4.53255 11.7223 4.23225 11.7853 4.48355 12.2612C5.02326 13.2823 6.24408 13.9237 7.2948 13.9482C6.32738 14.8966 4.74536 15.2431 3.22983 15.2431C2.92323 15.2343 2.93863 15.6709 3.18573 15.8328C4.30365 16.566 6.13488 17 7.4432 17C12.6443 17 15.6004 12.0451 15.6004 7.37462C15.6004 7.29937 15.599 7.14188 15.5969 6.98351C15.5969 6.96776 15.6004 6.95289 15.6004 6.93714C15.6004 6.91351 15.5948 6.89077 15.5948 6.86714C15.5927 6.74815 15.5906 6.63703 15.5885 6.57928C16.0008 6.20743 16.6323 5.56171 16.9515 5.06736C17.06 4.89937 16.9725 4.6955 16.8248 4.75937C16.4447 4.92474 15.7873 5.24497 15.3757 5.30622C16.1996 4.62463 16.6071 4.03141 16.9571 3.37257C17.0768 3.14771 16.927 2.91934 16.7443 3.02784Z" fill="#101E26"/>
</svg>
